<svg width="200" height="200" viewBox="0 0 200 200" fill="none" xmlns="http://www.w3.org/2000/svg">
<path d="M27 170.204C27 173.28 29.494 175.781 32.57 175.781H167.881C170.961 175.781 173.455 173.28 173.455 170.204V80.7805C173.455 77.7035 170.961 75.2085 167.881 75.2085H32.57C29.494 75.2085 27 77.7035 27 80.7805V170.204Z" fill="#433DB3"/>
<path d="M27 108.992V93.1365H173.455V108.992H27Z" fill="#35308D"/>
<path d="M56.131 30.2433V118.35C56.131 121.426 58.129 124.699 60.592 125.66L168.992 174.373C171.455 175.335 173.455 173.616 173.455 170.54V81.1163C173.455 78.0393 172.271 75.3533 168.992 73.8043L63.678 25.2792C60.194 24.1902 56.131 26.3794 56.131 30.2394V30.2433Z" fill="url(#paint0_linear_2866_604)"/>
<path d="M144.186 71.5054L135.233 61.5535L112.563 63.3755L112.117 88.6643L134.469 112.279L156.856 110.236L157.285 85.6653L149.5 77.4434L127.889 79.1003V91.7134L120.363 84.1113V73.0005L144.186 71.5054Z" fill="#18D5F5"/>
<path d="M71.246 69.7644L75.953 72.0344L76.363 47.2683L108.809 62.9104L108.602 74.7903L88.656 65.1724L88.43 78.0515L93.137 80.3193L82.028 84.4575L71.246 69.7644Z" fill="#18D5F5"/>
<path d="M158.998 129.219L154.289 126.95L153.875 151.717L121.434 136.073L121.637 124.194L141.586 133.81L141.811 120.932L137.104 118.664L148.211 114.525L158.998 129.219Z" fill="#18D5F5"/>
<path d="M74.793 102.213C75.002 90.3224 84.731 85.2934 96.531 90.9844C108.326 96.6724 117.724 110.925 117.515 122.817C117.31 134.712 107.574 139.74 95.779 134.049C83.983 128.361 74.584 114.109 74.793 102.213Z" fill="#18D5F5"/>
<path d="M88.613 125.963L91.406 113.839L97.957 115.005C102.164 115.755 107.266 113.034 108.098 107.96C108.17 107.53 108.202 107.102 108.194 106.677C110.821 108.266 112.364 111.27 111.852 114.371C111.182 118.447 107.227 121.139 103.016 120.392L97.002 119.321L95.111 127.122L88.613 125.963ZM106.881 105.893C106.908 106.403 106.881 106.927 106.793 107.452C106.121 111.522 102.164 114.22 97.957 113.47L91.721 112.36L93.772 103.435L101.614 104.83L105.499 105.521C105.979 105.603 106.436 105.728 106.881 105.893ZM87.242 96.3833L96.496 98.0305L100.383 98.7214C103.588 99.2904 106.018 101.692 106.699 104.6C106.01 104.252 105.256 103.993 104.459 103.852L100.574 103.16L92.728 101.768L88.425 119.908L81.853 118.741L87.242 96.3833Z" fill="#6757D1"/>
<defs>
<linearGradient id="paint0_linear_2866_604" x1="51.7746" y1="43.1343" x2="177.87" y2="156.322" gradientUnits="userSpaceOnUse">
<stop stop-color="#9068FC"/>
<stop offset="0.2902" stop-color="#9068FC"/>
<stop offset="0.8902" stop-color="#2C3CC9"/>
<stop offset="1" stop-color="#2C3CC9"/>
</linearGradient>
</defs>
</svg>
